<svg xmlns="http://www.w3.org/2000/svg" width="54.586" height="54.585" viewBox="0 0 54.586 54.585">
  <g id="Group_934" data-name="Group 934" transform="translate(-664.966 -5876.346)">
    <g id="Group_932" data-name="Group 932">
      <path id="Path_1099" data-name="Path 1099" d="M692.259,5930.931a27.292,27.292,0,1,1,27.293-27.293A27.325,27.325,0,0,1,692.259,5930.931Zm0-51.653a24.361,24.361,0,1,0,24.361,24.36A24.389,24.389,0,0,0,692.259,5879.278Z" fill="#e5e5e5"/>
    </g>
    <g id="Group_933" data-name="Group 933">
      <path id="Path_1100" data-name="Path 1100" d="M687.979,5903.767v15.818a.412.412,0,0,0,.412.412h5.874a.412.412,0,0,0,.412-.412v-16.076h4.259a.413.413,0,0,0,.411-.377l.409-4.844a.412.412,0,0,0-.411-.446h-4.668V5894.4a1.459,1.459,0,0,1,1.459-1.458h3.282a.412.412,0,0,0,.412-.412v-4.844a.413.413,0,0,0-.412-.412h-5.546a5.893,5.893,0,0,0-5.893,5.893v4.67h-2.937a.412.412,0,0,0-.412.412v4.843a.412.412,0,0,0,.412.412h2.937Z" fill="#e5e5e5" fill-rule="evenodd"/>
    </g>
  </g>
</svg>
