<svg xmlns="http://www.w3.org/2000/svg" width="64.165" height="80.421" viewBox="0 0 64.165 80.421">
  <g id="Group_872" data-name="Group 872" transform="translate(-681.098 -1385.789)">
    <g id="Group_871" data-name="Group 871">
      <path id="Path_1053" data-name="Path 1053" d="M692.487,1450.053a5.411,5.411,0,0,1-4.065-7.973c-.292-.093-.548-.168-.8-.255a5.345,5.345,0,0,1-3.756-3.931,5.265,5.265,0,0,1,.728-4.089,3.064,3.064,0,0,1,.922-.9,1.16,1.16,0,0,1,1.383.107,1.131,1.131,0,0,1,.388,1.29,3.456,3.456,0,0,1-.358.82,2.775,2.775,0,0,0,1,4.059.939.939,0,0,0,.466.091c5.073.051,10.146.108,15.218.125a1.306,1.306,0,0,1,1.285.715,1.358,1.358,0,0,1-.339,1.74.706.706,0,0,1-.383.079q-5.044.081-10.09.159c-.518.009-1.038.038-1.555.087a2.582,2.582,0,0,0-2.077,2.2,2.55,2.55,0,0,0,2.309,2.975c1.29.125,2.593.133,3.891.143,2.612.02,5.224.011,7.835,0,.588,0,1.175-.045,1.762-.079a2.365,2.365,0,0,0,1.505-.669c1.111-1.034,2.231-2.058,3.318-3.116,2.078-2.021,4.135-4.064,6.2-6.1.165-.163.357-.3.522-.461.584-.574,1.117-.364,1.652.124a1.07,1.07,0,0,1,.089,1.606c-.433.509-.9.995-1.372,1.467q-4,3.973-8.019,7.934a7.7,7.7,0,0,1-2.461,1.741,2.056,2.056,0,0,1-.7.165c-3.349.067-6.7.117-10.047.182a2.459,2.459,0,0,0-2.52,2.412,2.57,2.57,0,0,0,2.232,2.665c1.262.124,2.538.147,3.807.149,2.625,0,5.251-.054,7.876-.046a3.284,3.284,0,0,0,2.359-.914c3.8-3.46,7.654-6.866,11.445-10.338,1.966-1.8,3.879-3.659,5.745-5.561a25.323,25.323,0,0,0,2.294-2.882c.528-.726.509-.906-.121-1.558q-2.565-2.655-5.18-5.26c-1.759-1.741-3.559-3.441-5.333-5.166a16.036,16.036,0,0,1-1.122-1.195,5.208,5.208,0,0,1-1.005-4.928,9.617,9.617,0,0,1,1.367-3.139,7.528,7.528,0,0,1,1.069-1.234,2.756,2.756,0,0,1,3.268-.461c.849.4,1.673.868,2.479,1.354,3.694,2.231,7.405,4.437,11.057,6.734a18.819,18.819,0,0,1,6.268,6.377,17.834,17.834,0,0,1,2.177,6.734c.56,3.98-.411,7.7-1.849,11.35a84.544,84.544,0,0,1-5.343,10.505c-.834,1.474-1.658,2.953-2.5,4.423a5.564,5.564,0,0,0-.787,3.091,12.2,12.2,0,0,1-.032,1.517,1.419,1.419,0,0,1-1.066,1.221,1.069,1.069,0,0,1-1.262-.441,1.181,1.181,0,0,1-.261-.667,29.594,29.594,0,0,1,.025-3.236,4.767,4.767,0,0,1,.574-1.774c1.418-2.633,2.875-5.245,4.335-7.855a57.826,57.826,0,0,0,4.66-10.1,17.566,17.566,0,0,0,.23-10.686,14.156,14.156,0,0,0-4.308-6.418,29.035,29.035,0,0,0-4.771-3.389c-3.222-1.931-6.459-3.836-9.7-5.743-.339-.2-.713-.342-1.068-.514a.415.415,0,0,0-.575.133,7.016,7.016,0,0,0-1.536,3.606,2.175,2.175,0,0,0,.489,1.61,23.676,23.676,0,0,0,1.626,1.784q4.854,4.8,9.726,9.589c.281.277.526.592.781.9a3.106,3.106,0,0,1,.421,3.422,11.926,11.926,0,0,1-2.041,3.007,62.927,62.927,0,0,1-5.811,5.783c-4.12,3.781-8.288,7.51-12.387,11.314a6.031,6.031,0,0,1-4.334,1.688c-3.664-.012-7.329.039-10.993-.01a5.318,5.318,0,0,1-5.369-3.874,4.875,4.875,0,0,1,.143-3.329C692.237,1450.661,692.351,1450.384,692.487,1450.053Z" fill="#5e8d98"/>
      <path id="Path_1054" data-name="Path 1054" d="M709.642,1414.82c.272.293.5.544.733.79.942.991,1.911,1.957,2.822,2.975a5.226,5.226,0,0,1-1.671,8.092c-.3.135-.591.282-.936.447.1.114.189.212.278.306.77.814,1.529,1.639,2.314,2.44a5.319,5.319,0,0,1-4.464,8.761,4.927,4.927,0,0,1-2.975-1.239c-.841-.761-1.659-1.548-2.492-2.318-.226-.209-.47-.4-.731-.617a1.549,1.549,0,0,0-.136.223,5.287,5.287,0,0,1-5.615,3.531,4.1,4.1,0,0,1-2.47-1.072c-1.562-1.452-3.128-2.9-4.639-4.4q-3.5-3.484-6.93-7.048a5.2,5.2,0,0,1-1.488-2.414,5.48,5.48,0,0,1,3.441-6.4c.191-.071.381-.146.588-.225-.116-.616-.257-1.212-.336-1.817a5.251,5.251,0,0,1,3.767-5.6c.367-.1.369-.241.322-.535a10.573,10.573,0,0,1-.312-2.418,5.005,5.005,0,0,1,3.4-4.466c.263-.106.624-.157.751-.355.094-.148-.122-.489-.19-.747-.8-3.043.924-6.845,5.32-6.75.568.012,1.134.118,1.753.186,0-.095,0-.238,0-.382.027-2.242.078-4.485.066-6.727,0-.616.385-.828.783-1.071a1.071,1.071,0,0,1,1.236.043,1.246,1.246,0,0,1,.621,1.136c-.035,2.9-.013,5.8-.023,8.7a.877.877,0,0,0,.284.678c3.07,3.1,6.122,6.214,9.2,9.308a5.3,5.3,0,0,1-1.6,8.676C710.106,1414.6,709.91,1414.691,709.642,1414.82Zm-19.276-3.1a2.616,2.616,0,0,0-2.7,1.93,2.393,2.393,0,0,0,.736,2.48c1.571,1.58,3.087,3.215,4.664,4.789q7.17,7.155,14.363,14.287a2.175,2.175,0,0,0,1.6.68,2.5,2.5,0,0,0,2.487-1.407,2.305,2.305,0,0,0-.4-2.8c-.2-.207-.375-.435-.575-.64-2.422-2.469-4.824-4.957-7.276-7.4-3.818-3.8-7.672-7.562-11.5-11.347A1.884,1.884,0,0,0,690.366,1411.715Zm3.767-7.537a2.591,2.591,0,0,0-2.779,2.859,2.694,2.694,0,0,0,.952,1.67c2.372,2.441,4.738,4.888,7.147,7.292,2.69,2.683,5.418,5.33,8.149,7.972a2.159,2.159,0,0,0,1.019.541,2.7,2.7,0,0,0,3.043-1.785,1.876,1.876,0,0,0-.311-2.023c-.305-.368-.588-.759-.924-1.1q-7.382-7.407-14.769-14.806A1.964,1.964,0,0,0,694.133,1404.178Zm-7.889,15.08a2.6,2.6,0,0,0-2.266,1.647,2.217,2.217,0,0,0,.419,2.614c1.58,1.667,3.132,3.361,4.757,4.981,2.2,2.191,4.448,4.325,6.683,6.476a1.889,1.889,0,0,0,.58.373,2.669,2.669,0,0,0,3.635-2.338,1.811,1.811,0,0,0-.485-1.426c-1.015-1.072-1.985-2.187-3.027-3.231-2.837-2.845-5.7-5.662-8.558-8.488A2.37,2.37,0,0,0,686.244,1419.258Zm11.431-22.731a2.552,2.552,0,0,0-2.277,1.5,2.292,2.292,0,0,0,.317,2.712c.866.967,1.741,1.929,2.661,2.844,2.665,2.651,5.357,5.275,8.031,7.918a2.479,2.479,0,0,0,1.447.69,2.638,2.638,0,0,0,2.626-1.231,2.523,2.523,0,0,0-.193-2.907c-.206-.219-.382-.466-.594-.679q-5.086-5.093-10.18-10.177A2.464,2.464,0,0,0,697.675,1396.527Z" fill="#5e8d98"/>
      <path id="Path_1055" data-name="Path 1055" d="M731.964,1392.6v-5.576a1.293,1.293,0,0,1,1.418-1.212,1.36,1.36,0,0,1,1.179,1.352c.03,3.54.052,7.08.1,10.62a1.733,1.733,0,0,0,.271.862c1.309,2.063,2.729,4.062,3.948,6.176a28.056,28.056,0,0,1,3.685,14.388,1.32,1.32,0,0,1-2.013,1.2,1.161,1.161,0,0,1-.541-.991c-.086-.87-.171-1.74-.23-2.612A24.879,24.879,0,0,0,736,1405.2c-.966-1.553-1.944-3.1-2.992-4.6a5.556,5.556,0,0,1-1.036-3.412c.029-1.53.007-3.061.007-4.592Z" fill="#5e8d98"/>
      <path id="Path_1056" data-name="Path 1056" d="M702.456,1463.543c-.027.545-.026,1.094-.09,1.635a1.233,1.233,0,0,1-1.17,1.015,1.345,1.345,0,0,1-1.3-1.034c-.082-1.062-.124-2.128-.157-3.193-.011-.371.877-1.056,1.36-1.093a1.268,1.268,0,0,1,1.259.911,1.554,1.554,0,0,1,.053.323c.006.478,0,.957,0,1.435Z" fill="#5e8d98"/>
    </g>
  </g>
</svg>
