<svg xmlns="http://www.w3.org/2000/svg" width="54.229" height="54.229" viewBox="0 0 54.229 54.229">
  <g id="Group_935" data-name="Group 935" transform="translate(-748.709 -5876.524)">
    <path id="Path_1101" data-name="Path 1101" d="M775.824,5930.753a27.115,27.115,0,1,1,27.114-27.115A27.146,27.146,0,0,1,775.824,5930.753Zm0-51.653a24.538,24.538,0,1,0,24.538,24.538A24.566,24.566,0,0,0,775.824,5879.1Zm9.142,13.537a2.006,2.006,0,1,0,2.007,2.007A2.007,2.007,0,0,0,784.966,5892.637Zm-8.92,2.573a8.428,8.428,0,1,0,8.428,8.428A8.438,8.438,0,0,0,776.046,5895.21Zm0,13.827a5.4,5.4,0,1,1,5.4-5.4A5.405,5.405,0,0,1,776.046,5909.037Zm17.007-12.4a10.28,10.28,0,0,0-10.281-10.28H769.2a10.28,10.28,0,0,0-10.28,10.28V5910.2a10.28,10.28,0,0,0,10.28,10.279h13.568a10.28,10.28,0,0,0,10.281-10.279Zm-3.22,13.569a7.06,7.06,0,0,1-7.061,7.06H769.2a7.06,7.06,0,0,1-7.06-7.06v-13.569a7.059,7.059,0,0,1,7.06-7.06h13.568a7.059,7.059,0,0,1,7.061,7.06Z" fill="#e5e5e5"/>
  </g>
</svg>
