<svg xmlns="http://www.w3.org/2000/svg" width="54.493" height="54.493" viewBox="0 0 54.493 54.493">
  <g id="Group_945" data-name="Group 945" transform="translate(-832.142 -5876.392)">
    <g id="Group_943" data-name="Group 943">
      <g id="Group_940" data-name="Group 940">
        <path id="Path_1104" data-name="Path 1104" d="M859.388,5930.885a27.246,27.246,0,1,1,27.247-27.247A27.277,27.277,0,0,1,859.388,5930.885Zm0-51.561a24.314,24.314,0,1,0,24.315,24.314A24.341,24.341,0,0,0,859.388,5879.324Z" fill="#e5e5e5"/>
      </g>
      <g id="Group_942" data-name="Group 942">
        <g id="Group_941" data-name="Group 941">
          <path id="Path_1105" data-name="Path 1105" d="M874.792,5905.713v10.173a.455.455,0,0,1-.455.456h-5.252a.455.455,0,0,1-.456-.456v-9.461c0-2.49-.889-4.19-3.12-4.19a3.37,3.37,0,0,0-3.161,2.253,4.223,4.223,0,0,0-.2,1.5v9.9a.455.455,0,0,1-.455.455h-5.251a.453.453,0,0,1-.455-.455c.012-2.52.065-14.745.011-17.618a.453.453,0,0,1,.455-.461h5.24a.456.456,0,0,1,.455.456v2.171c-.012.021-.03.041-.041.061h.041v-.061a6.12,6.12,0,0,1,5.554-3.062c4.054,0,7.094,2.649,7.094,8.341Zm-27.923,10.629h5.25a.455.455,0,0,0,.455-.456v-17.623a.456.456,0,0,0-.455-.456h-5.25a.456.456,0,0,0-.456.456v17.623A.455.455,0,0,0,846.869,5916.342Z" fill="#e5e5e5"/>
        </g>
      </g>
    </g>
    <g id="Group_944" data-name="Group 944">
      <circle id="Ellipse_80" data-name="Ellipse 80" cx="3.299" cy="3.299" r="3.299" transform="translate(846.011 5888.853)" fill="#e5e5e5"/>
    </g>
  </g>
</svg>
