<svg xmlns="http://www.w3.org/2000/svg" width="80.421" height="80.644" viewBox="0 0 80.421 80.644">
  <g id="Group_870" data-name="Group 870" transform="translate(-317.092 -1385.678)">
    <g id="Group_869" data-name="Group 869">
      <path id="Path_1050" data-name="Path 1050" d="M356.654,1466.322c-1.174-.344-2.352-.675-3.521-1.034a50.619,50.619,0,0,1-35.984-48.065c-.1-8.761-.038-17.524-.036-26.285a5.159,5.159,0,0,1,5.239-5.258q34.955,0,69.907,0a5.159,5.159,0,0,1,5.228,5.27c0,8.52.068,17.041-.016,25.56a50.641,50.641,0,0,1-13.429,34.466,49.359,49.359,0,0,1-25.294,15.05,7.669,7.669,0,0,0-.8.3Zm.727-77.256q-17.336,0-34.672,0c-1.54,0-2.209.663-2.209,2.191,0,8.655-.054,17.31.032,25.964a47.055,47.055,0,0,0,36.062,45.488,3.2,3.2,0,0,0,1.492-.026,46.091,46.091,0,0,0,22.614-13.107,46.634,46.634,0,0,0,13.312-31.308c.317-8.993.079-18.005.087-27.009,0-1.53-.668-2.193-2.207-2.193Q374.636,1389.064,357.381,1389.066Z" fill="#5e8d98"/>
      <path id="Path_1051" data-name="Path 1051" d="M357.49,1439.333q-5.8,0-11.611,0a5.089,5.089,0,0,1-5.164-5.142q-.012-9.554,0-19.108a5.049,5.049,0,0,1,4.261-5c.563-.089.579-.377.613-.819a32.441,32.441,0,0,1,.5-5.1c1.1-4.574,5.9-8.218,10.6-8.3a11.6,11.6,0,0,1,11.205,6.568,12.63,12.63,0,0,1,1.1,6.436c-.024.788.085,1.163,1.032,1.257a4.282,4.282,0,0,1,3.821,4.217q.057,10.442,0,20.882a4.333,4.333,0,0,1-4.516,4.108C365.391,1439.341,361.44,1439.333,357.49,1439.333Zm.053-3.279q5.763,0,11.526,0c1.212,0,1.638-.409,1.639-1.641q.01-9.591,0-19.183c0-1.531-.5-2.012-2.049-2.013q-11.285-.006-22.569,0a2.038,2.038,0,0,0-2.2,2.136q-.014,9.31,0,18.619a1.946,1.946,0,0,0,2.125,2.082Q351.78,1436.056,357.543,1436.054Zm8.1-26.144c.432-4.63-.353-7.428-4.169-9.724a8.327,8.327,0,0,0-9.491.762c-2.962,2.235-3.465,5.455-2.981,8.962Z" fill="#5e8d98"/>
      <path id="Path_1052" data-name="Path 1052" d="M363.08,1424.4a5.645,5.645,0,0,1-5.772,5.655,5.715,5.715,0,1,1,.023-11.428A5.652,5.652,0,0,1,363.08,1424.4Zm-5.763-2.532a2.492,2.492,0,1,0,2.585,2.464A2.6,2.6,0,0,0,357.317,1421.872Z" fill="#5e8d98"/>
    </g>
  </g>
</svg>
