<svg xmlns="http://www.w3.org/2000/svg" width="54.493" height="54.493" viewBox="0 0 54.493 54.493">
  <g id="Group_939" data-name="Group 939" transform="translate(-915.706 -5876.392)">
    <g id="Group_936" data-name="Group 936">
      <path id="Path_1102" data-name="Path 1102" d="M942.953,5930.885a27.246,27.246,0,1,1,27.246-27.247A27.278,27.278,0,0,1,942.953,5930.885Zm0-51.561a24.314,24.314,0,1,0,24.314,24.314A24.342,24.342,0,0,0,942.953,5879.324Z" fill="#e5e5e5"/>
    </g>
    <g id="Group_938" data-name="Group 938">
      <g id="Group_937" data-name="Group 937">
        <path id="Path_1103" data-name="Path 1103" d="M945.034,5912.38c-1.949-.151-2.768-1.117-4.3-2.045-.681,3.573-1.485,7.027-3.385,9.382a.962.962,0,0,1-1.714-.539c-.287-5.693,1.68-10.212,2.646-14.979-1.835-3.089.22-9.305,4.09-7.773,4.762,1.883-4.124,11.483,1.842,12.682,6.227,1.252,8.769-10.806,4.907-14.727-5.58-5.663-16.242-.129-14.931,7.977.248,1.54,1.541,2.247,1.377,3.769a1.355,1.355,0,0,1-1.94,1.088c-2.47-1.155-3.236-3.684-3.118-6.9.221-6.147,5.523-10.451,10.841-11.046,6.725-.753,13.038,2.469,13.909,8.8.98,7.14-3.036,14.872-10.227,14.317Z" fill="#e5e5e5"/>
      </g>
    </g>
  </g>
</svg>
