<svg xmlns="http://www.w3.org/2000/svg" width="80.421" height="59.033" viewBox="0 0 80.421 59.033">
  <g id="Group_876" data-name="Group 876" transform="translate(-1412.916 -1373.691)">
    <g id="Group_875" data-name="Group 875">
      <path id="Path_1066" data-name="Path 1066" d="M1477.964,1431.733l-2.06.906a5.02,5.02,0,0,1-.574-.913c-1.957-5.623-3.891-11.254-5.841-16.88-1.314-3.791-3.809-5.75-7.83-5.822-5.61-.1-11.223-.093-16.833-.012-4.107.06-6.727,2.034-8.088,5.905-2.056,5.849-4.069,11.713-6.164,17.753l-2.086-.732a3.11,3.11,0,0,1,.01-.855q2.848-8.325,5.728-16.639c1.813-5.217,5.274-7.86,10.8-7.979,5.434-.116,10.874-.128,16.307,0,5.6.134,8.9,2.747,10.7,8.039C1473.98,1420.214,1475.96,1425.911,1477.964,1431.733Z" fill="#5e8d98"/>
      <path id="Path_1067" data-name="Path 1067" d="M1464.753,1393.021a11.639,11.639,0,1,1-11.786-11.53A11.583,11.583,0,0,1,1464.753,1393.021Zm-2.52.037a9.113,9.113,0,0,0-18.226-.039,9.113,9.113,0,1,0,18.226.039Z" fill="#5e8d98"/>
      <path id="Path_1068" data-name="Path 1068" d="M1484.689,1416.042l-1.516-1.922c10.473-11.629,10.042-27.6-.211-38.651l1.536-1.778a27.554,27.554,0,0,1,8.039,14.306C1494.8,1398.476,1492.273,1407.713,1484.689,1416.042Z" fill="#5e8d98"/>
      <path id="Path_1069" data-name="Path 1069" d="M1423.335,1414.047l-1.584,1.743a27.1,27.1,0,0,1-7.673-12.955c-2.874-10.924-.4-20.571,7.225-29.127l1.741,1.624C1411.922,1388.025,1413.8,1403.909,1423.335,1414.047Z" fill="#5e8d98"/>
      <path id="Path_1070" data-name="Path 1070" d="M1478.046,1379.982l1.533-1.489c9.152,7.949,9.359,23.262.524,32.438l-1.649-1.521C1486.474,1399.739,1485.614,1388.6,1478.046,1379.982Z" fill="#5e8d98"/>
      <path id="Path_1071" data-name="Path 1071" d="M1426.208,1378.64l1.6,1.4c-7.682,9.8-7.68,19.526.135,29.233a2.515,2.515,0,0,1-.327.637c-.292.322-.644.59-1.548,1.394-1.713-2.936-3.7-5.591-4.911-8.561A22.422,22.422,0,0,1,1426.208,1378.64Z" fill="#5e8d98"/>
      <path id="Path_1072" data-name="Path 1072" d="M1475.176,1406l-1.558-1.405c4.985-6.524,5.046-13-.164-19.584l1.406-1.669C1481.348,1389.293,1481.5,1400.214,1475.176,1406Z" fill="#5e8d98"/>
      <path id="Path_1073" data-name="Path 1073" d="M1430.878,1383.326l1.763,1.566c-4.979,6.527-5.061,13,.189,19.616l-1.907,2.17c-1.408-2.717-2.982-4.94-3.756-7.414C1425.335,1393.405,1426.776,1388.135,1430.878,1383.326Z" fill="#5e8d98"/>
      <path id="Path_1074" data-name="Path 1074" d="M1440.487,1432.724l-2.3-.992,3.2-10.488,2.379.63Z" fill="#5e8d98"/>
      <path id="Path_1075" data-name="Path 1075" d="M1465.706,1432.505c-1.068-3.492-2.108-6.889-3.216-10.51l2.138-.721a4.169,4.169,0,0,1,.5.791c.817,2.669,1.514,5.38,2.457,8C1468.176,1431.715,1467.639,1432.332,1465.706,1432.505Z" fill="#5e8d98"/>
    </g>
  </g>
</svg>
