<svg xmlns="http://www.w3.org/2000/svg" width="54.585" height="54.585" viewBox="0 0 54.585 54.585">
  <g id="Group_931" data-name="Group 931" transform="translate(-581.402 -5876.346)">
    <g id="Group_924" data-name="Group 924">
      <path id="Path_1093" data-name="Path 1093" d="M608.694,5930.931a27.292,27.292,0,1,1,27.293-27.293A27.324,27.324,0,0,1,608.694,5930.931Zm0-51.653a24.361,24.361,0,1,0,24.361,24.36A24.388,24.388,0,0,0,608.694,5879.278Z" fill="#e5e5e5"/>
    </g>
    <g id="Group_930" data-name="Group 930">
      <g id="Group_925" data-name="Group 925">
        <path id="Path_1094" data-name="Path 1094" d="M624.381,5893.678a13.125,13.125,0,0,1-3.214.918c.518-.087,1.281-1.025,1.586-1.4a5.9,5.9,0,0,0,1.07-1.948c.028-.056.049-.126-.007-.168a.183.183,0,0,0-.17.015,16.4,16.4,0,0,1-3.817,1.46.254.254,0,0,1-.263-.07,3.134,3.134,0,0,0-.333-.341,6.793,6.793,0,0,0-1.849-1.133,6.445,6.445,0,0,0-2.836-.456,6.778,6.778,0,0,0-2.691.76,6.905,6.905,0,0,0-2.17,1.773,6.649,6.649,0,0,0-1.3,2.6,7,7,0,0,0-.069,2.741c.02.153.007.173-.132.153-5.242-.78-9.588-2.657-13.116-6.676-.153-.175-.236-.175-.362.013-1.543,2.314-.794,6.031,1.134,7.858.257.244.521.487.806.71a6.7,6.7,0,0,1-2.531-.71c-.153-.1-.23-.041-.243.133a4.039,4.039,0,0,0,.041.751,6.73,6.73,0,0,0,4.145,5.362,3.984,3.984,0,0,0,.841.257,7.525,7.525,0,0,1-2.482.077c-.181-.035-.25.055-.181.229a6.979,6.979,0,0,0,5.216,4.367c.236.042.473.042.71.1-.015.022-.029.022-.042.042-.586.893-2.617,1.558-3.562,1.888a12.741,12.741,0,0,1-5.41.692c-.291-.042-.352-.039-.431,0s-.01.119.084.195c.369.243.744.459,1.126.668a17.943,17.943,0,0,0,3.616,1.446c6.5,1.795,13.819.476,18.7-4.372,3.831-3.807,5.174-9.057,5.174-14.314,0-.206.243-.32.388-.428a12.619,12.619,0,0,0,2.533-2.646.771.771,0,0,0,.157-.507v-.028C624.5,5893.594,624.51,5893.619,624.381,5893.678Z" fill="#e5e5e5"/>
      </g>
      <g id="Group_926" data-name="Group 926">
        <path id="Path_1095" data-name="Path 1095" d="M602.136,5916.627Z" fill="#e5e5e5" fill-rule="evenodd"/>
      </g>
      <g id="Group_927" data-name="Group 927">
        <path id="Path_1096" data-name="Path 1096" d="M602.136,5916.627c-.042,0-.525,0,0,0Z" fill="#e5e5e5" fill-rule="evenodd"/>
      </g>
      <g id="Group_928" data-name="Group 928">
        <path id="Path_1097" data-name="Path 1097" d="M603.207,5916.655c0-.054.564,0,0,0C603.207,5916.627,603.276,5916.655,603.207,5916.655Z" fill="#e5e5e5" fill-rule="evenodd"/>
      </g>
      <g id="Group_929" data-name="Group 929">
        <path id="Path_1098" data-name="Path 1098" d="M614.458,5890.576a.113.113,0,0,1-.131,0Z" fill="#e5e5e5" fill-rule="evenodd"/>
      </g>
    </g>
  </g>
</svg>
